<mxfile host="app.diagrams.net" agent="Mozilla/5.0 (Macintosh; Intel Mac OS X 10_15_6) AppleWebKit/605.1.15 (KHTML, like Gecko) Version/15.6.6 Safari/605.1.15" version="26.2.8">
  <diagram name="Page-1" id="D_sv0HXlFTcadr3VVVth">
    <mxGraphModel dx="1190" dy="839" grid="0" gridSize="10" guides="1" tooltips="1" connect="1" arrows="1" fold="1" page="0" pageScale="1" pageWidth="827" pageHeight="1169" math="0" shadow="0">
      <root>
        <mxCell id="0" />
        <mxCell id="1" parent="0" />
        <mxCell id="kJvF4ciRofW91EzJ7GVi-1" value="Wallet" style="rounded=0;whiteSpace=wrap;html=1;" parent="1" vertex="1">
          <mxGeometry x="-103" y="410" width="160" height="80" as="geometry" />
        </mxCell>
        <mxCell id="kJvF4ciRofW91EzJ7GVi-4" value="Aplication" style="rounded=0;whiteSpace=wrap;html=1;" parent="1" vertex="1">
          <mxGeometry x="143" y="410" width="160" height="80" as="geometry" />
        </mxCell>
        <mxCell id="kJvF4ciRofW91EzJ7GVi-14" style="edgeStyle=none;curved=1;rounded=0;orthogonalLoop=1;jettySize=auto;html=1;fontSize=12;startSize=8;endSize=8;exitX=1;exitY=0.75;exitDx=0;exitDy=0;endArrow=none;startFill=0;" parent="1" source="kJvF4ciRofW91EzJ7GVi-7" target="kJvF4ciRofW91EzJ7GVi-12" edge="1">
          <mxGeometry relative="1" as="geometry" />
        </mxCell>
        <mxCell id="kJvF4ciRofW91EzJ7GVi-7" value="Crypto On / Off Ramps" style="rounded=0;whiteSpace=wrap;html=1;verticalAlign=top;fontSize=40;" parent="1" vertex="1">
          <mxGeometry x="-389" y="-115" width="771" height="385" as="geometry" />
        </mxCell>
        <mxCell id="kJvF4ciRofW91EzJ7GVi-8" value="Fiat" style="rounded=0;whiteSpace=wrap;html=1;verticalAlign=top;" parent="1" vertex="1">
          <mxGeometry x="-367" y="-38" width="160" height="280" as="geometry" />
        </mxCell>
        <mxCell id="kJvF4ciRofW91EzJ7GVi-11" value="Earn" style="rounded=0;whiteSpace=wrap;html=1;verticalAlign=top;" parent="1" vertex="1">
          <mxGeometry x="-179" y="-38" width="160" height="280" as="geometry" />
        </mxCell>
        <mxCell id="kJvF4ciRofW91EzJ7GVi-12" value="Recieve" style="rounded=0;whiteSpace=wrap;html=1;verticalAlign=top;" parent="1" vertex="1">
          <mxGeometry x="5" y="-38" width="160" height="281" as="geometry" />
        </mxCell>
        <mxCell id="kJvF4ciRofW91EzJ7GVi-2" value="Exchange" style="rounded=0;whiteSpace=wrap;html=1;verticalAlign=top;" parent="1" vertex="1">
          <mxGeometry x="198" y="-38" width="160" height="281" as="geometry" />
        </mxCell>
        <mxCell id="kJvF4ciRofW91EzJ7GVi-22" value="Fiat to crypto exchange" style="rounded=0;whiteSpace=wrap;html=1;fontSize=10;" parent="1" vertex="1">
          <mxGeometry x="-352" y="-7" width="130" height="50" as="geometry" />
        </mxCell>
        <mxCell id="kJvF4ciRofW91EzJ7GVi-23" value="Bank Card &amp;nbsp;to &amp;amp; from Crypto&amp;nbsp;" style="rounded=0;whiteSpace=wrap;html=1;fontSize=10;" parent="1" vertex="1">
          <mxGeometry x="-352" y="59" width="130" height="50" as="geometry" />
        </mxCell>
        <mxCell id="kJvF4ciRofW91EzJ7GVi-24" value="Learn to earn" style="rounded=0;whiteSpace=wrap;html=1;fontSize=10;" parent="1" vertex="1">
          <mxGeometry x="-164" y="-7" width="130" height="50" as="geometry" />
        </mxCell>
        <mxCell id="OQklhBUNAZMBMyoHvID6-1" value="Crypto Faucet&amp;nbsp;" style="rounded=0;whiteSpace=wrap;html=1;fontSize=10;" vertex="1" parent="1">
          <mxGeometry x="-164" y="56" width="130" height="50" as="geometry" />
        </mxCell>
        <mxCell id="OQklhBUNAZMBMyoHvID6-2" value="Giveaways" style="rounded=0;whiteSpace=wrap;html=1;fontSize=10;" vertex="1" parent="1">
          <mxGeometry x="-164" y="119" width="130" height="50" as="geometry" />
        </mxCell>
        <mxCell id="OQklhBUNAZMBMyoHvID6-3" value="Work for project" style="rounded=0;whiteSpace=wrap;html=1;fontSize=10;" vertex="1" parent="1">
          <mxGeometry x="-164" y="180" width="130" height="50" as="geometry" />
        </mxCell>
        <mxCell id="OQklhBUNAZMBMyoHvID6-4" value="Market Maket" style="rounded=0;whiteSpace=wrap;html=1;fontSize=10;" vertex="1" parent="1">
          <mxGeometry x="-164" y="243" width="130" height="50" as="geometry" />
        </mxCell>
        <mxCell id="OQklhBUNAZMBMyoHvID6-5" value="Miner / validator" style="rounded=0;whiteSpace=wrap;html=1;fontSize=10;" vertex="1" parent="1">
          <mxGeometry x="-164" y="311" width="130" height="50" as="geometry" />
        </mxCell>
        <mxCell id="OQklhBUNAZMBMyoHvID6-6" value="Simple Swaps" style="rounded=0;whiteSpace=wrap;html=1;fontSize=10;" vertex="1" parent="1">
          <mxGeometry x="-352" y="125" width="130" height="50" as="geometry" />
        </mxCell>
      </root>
    </mxGraphModel>
  </diagram>
</mxfile>
